# xmcd CD database file
#
# Track frame offsets:
#	182
#	15682
#	33552
#	54192
#	70812
#	83442
#	104757
#	120405
#	137672
#	159555
#	171465
#	184875
#	202300
#	215397
#	234770
#	253945
#	271432
#	286295
#	303170
#
# Disc length: 4260 seconds
#
# Revision: 6
# Processed by: cddbd v1.5.2PL0 Copyright (c) Steve Scherf et al.
# Submitted via: FreeDB 13.2
#
DISCID=1110a213
DTITLE=Henning Stærk - Greatest - And Still Going Strong
DYEAR=1995
DGENRE=Blues
TTITLE0=Cheque Book
TTITLE1=Deep in the Heart of Texas
TTITLE2=Sweetheart
TTITLE3=Smalltown Saturday Night
TTITLE4=A Certain Girl
TTITLE5=I've Got Dreams To Remember
TTITLE6=Whatever Gets You thru the Night
TTITLE7=Fire
TTITLE8=Baby Baby Baby
TTITLE9=Come On in My kitchen
TTITLE10=Cherry Cherry
TTITLE11=Rubber Heels
TTITLE12=Soothe Me
TTITLE13=Black Coffee
TTITLE14=Take Me to the River
TTITLE15=Brass Buttons
TTITLE16=Nobody
TTITLE17=Who'll Stop the Rain
TTITLE18=We Believe in Happy Endings
EXTD=
EXTT0=
EXTT1=
EXTT2=
EXTT3=
EXTT4=
EXTT5=
EXTT6=
EXTT7=
EXTT8=
EXTT9=
EXTT10=
EXTT11=
EXTT12=
EXTT13=
EXTT14=
EXTT15=
EXTT16=
EXTT17=
EXTT18=
PLAYORDER=
